# xmcd CD database file
#
# Track frame offsets:
#	150
#	15602
#	32010
#	46735
#	61425
#	76455
#	91797
#	107002
#	123862
#	136040
#	152110
#	163677
#	180350
#	189202
#	206075
#	222555
#	238265
#	251772
#	266790
#	281487
#	293952
#	309490
#
# Disc length: 4298 seconds
#
# Revision: 0
# Processed by: cddbd v1.5.1PL0 Copyright (c) Steve Scherf et al.
# Submitted via: CDex 1.51
#
DISCID=3510c816
DTITLE=ナンシー梅木 - The Early Days of Nancy Umeki 1950-1954Victor Recordings
DYEAR=2001
DGENRE=Jazz
TTITLE0=SLEEPY MY LOVE
TTITLE1=IT ISN'T FAIR
TTITLE2=SENTIMENTAL ME
TTITLE3=MY FOOLISH HEART
TTITLE4=AGAIN
TTITLE5=MANHATTAN MOON
TTITLE6=WITH A SONG IN MY HEART
TTITLE7=I'LL WALK ALONE
TTITLE8=BY BABY'S COMMIN' HOME
TTITLE9=I'M WALKING BEHIND YOU
TTITLE10=DOGGIE IN THE WINDOW
TTITLE11=SAYONARA(LET'S SAY GOOD BYE)
TTITLE12=MY ICHIBAN TOMODACH
TTITLE13=VAYA CON DIOS
TTITLE14=KISS ME AGAIN STRANGER
TTITLE15=I'M WAITING FOR YOU
TTITLE16=ある月の夜に
TTITLE17=哀愁の一夜
TTITLE18=その人の名は言えない
TTITLE19=夜のささやき
TTITLE20=泣きたいような
TTITLE21=WHY DON'T YOU BELIEVE ME?
EXTD=YEAR: 2001
EXTT0=
EXTT1=
EXTT2=
EXTT3=
EXTT4=
EXTT5=
EXTT6=
EXTT7=
EXTT8=
EXTT9=
EXTT10=
EXTT11=
EXTT12=
EXTT13=
EXTT14=
EXTT15=
EXTT16=
EXTT17=
EXTT18=
EXTT19=
EXTT20=
EXTT21=
PLAYORDER=
